<svg width="725" height="670" viewBox="0 0 725 670" fill="none" xmlns="http://www.w3.org/2000/svg">
<circle cx="364" cy="335" r="335" fill="#FFEFD8"/>
<path d="M76 506H653.5C589 620 459.2 670 366 670C272.8 670 151.5 627.5 76 506Z" fill="#F7DBBB"/>
<path fill-rule="evenodd" clip-rule="evenodd" d="M222.264 252.321C219.602 248.4 217.801 243.596 218.102 238.212C218.969 222.701 236.178 226.113 239.525 233.942C242.872 241.771 242.475 261.629 238.149 263.029C236.423 263.587 232.748 262.22 229.007 259.391L231.355 280.233H217.491L222.264 252.321Z" fill="#B28B67"/>
<path fill-rule="evenodd" clip-rule="evenodd" d="M245.667 223.089C245.38 221.823 244.608 220.739 243.567 220.417C243.315 220.339 243.054 220.308 242.794 220.321C242.701 220.326 242.675 220.359 242.631 220.278C242.599 220.217 242.598 220.069 242.585 219.998C242.544 219.776 242.492 219.558 242.428 219.345C242.211 218.618 241.845 217.975 241.404 217.433C240.578 216.42 239.464 215.721 238.305 215.594C237.671 215.525 237.042 215.654 236.443 215.913C236.132 216.047 235.832 216.214 235.539 216.398C235.45 216.454 235.164 216.726 235.076 216.708C234.978 216.688 234.781 216.384 234.702 216.307C233.719 215.361 232.505 214.989 231.281 215C229.899 215.013 228.569 215.1 227.416 216.157C227.172 216.38 226.94 216.625 226.719 216.883C226.602 217.019 226.49 217.16 226.382 217.307C226.317 217.395 226.254 217.486 226.193 217.579C226.09 217.737 226.106 217.788 225.962 217.678C225.407 217.256 224.764 217.058 224.117 217.158C223.733 217.217 223.359 217.362 223.004 217.552C222.883 217.617 222.603 217.876 222.474 217.879C222.346 217.881 222.07 217.641 221.939 217.58C221.227 217.251 220.461 217.169 219.713 217.322C218.942 217.479 218.185 217.865 217.531 218.398C217.217 218.655 216.943 218.939 216.723 219.321C216.627 219.485 216.541 219.66 216.434 219.812C216.371 219.902 216.246 219.994 216.212 220.107C216.232 220.039 215.368 219.621 215.287 219.595C214.853 219.452 214.411 219.481 213.986 219.657C213.186 219.987 212.499 220.727 211.934 221.486C211.643 221.876 211.389 222.307 211.174 222.766C211.071 222.986 210.976 223.212 210.89 223.443C210.848 223.555 210.82 223.695 210.765 223.796C210.694 223.926 210.646 223.928 210.517 223.985C209.863 224.272 209.266 224.759 208.812 225.417C208.353 226.083 208.055 226.902 207.93 227.765C207.922 227.816 207.918 228.027 207.894 228.054C207.862 228.092 207.73 228.075 207.68 228.083C207.508 228.108 207.337 228.146 207.168 228.196C206.857 228.288 206.554 228.424 206.267 228.602C205.15 229.296 204.351 230.596 203.96 232.059C203.55 233.595 203.557 235.354 204.047 236.861C204.127 237.104 204.221 237.34 204.332 237.564C204.4 237.701 204.422 237.701 204.377 237.845C204.328 238.005 204.238 238.161 204.18 238.317C203.989 238.828 203.856 239.37 203.772 239.923C203.634 240.83 203.565 241.783 203.702 242.698C203.765 243.122 203.875 243.537 204.043 243.915C204.129 244.108 204.229 244.291 204.342 244.46C204.401 244.548 204.464 244.632 204.529 244.712C204.566 244.758 204.615 244.798 204.647 244.849C204.725 244.974 204.741 244.872 204.701 245.055C204.645 245.312 204.518 245.565 204.441 245.815C204.361 246.072 204.288 246.333 204.222 246.596C204.088 247.13 203.975 247.673 203.904 248.225C203.769 249.286 203.792 250.416 204.192 251.389C204.363 251.805 204.608 252.171 204.906 252.455C205.051 252.594 205.209 252.714 205.375 252.812C205.46 252.863 205.568 252.884 205.607 252.987C205.649 253.098 205.587 253.319 205.572 253.443C205.45 254.521 205.388 255.654 205.643 256.711C205.879 257.685 206.397 258.544 207.07 259.113C208.375 260.218 210.135 260.155 211.506 259.271C211.864 259.041 212.198 258.755 212.497 258.417C213.256 259.701 214.82 259.66 215.93 259.294C217.313 258.839 218.423 257.632 219.063 256.046C219.938 257.382 221.773 256.949 222.379 255.499C222.528 255.145 222.616 254.754 222.659 254.358C222.682 254.15 222.667 253.94 222.685 253.734C222.706 253.471 222.846 253.216 222.927 252.961C223.084 252.466 223.181 251.955 223.185 251.421C223.187 251.142 223.159 250.87 223.138 250.594C223.119 250.345 223.174 250.113 223.205 249.867C222.85 249.941 222.418 249.821 222.084 249.691C221.756 249.565 221.449 249.231 221.217 248.926C220.68 248.219 220.351 247.291 220.127 246.368C219.634 244.342 219.836 241.912 221.46 240.8C222.216 240.282 224.483 240.283 225.384 240.539C226.332 240.808 227.406 243.432 227.459 243.678C227.491 243.831 227.475 244.02 227.587 244.121C227.832 244.345 228.237 243.957 228.418 243.766C228.731 243.435 228.954 242.995 229.147 242.55C229.567 241.579 229.906 240.537 230.146 239.474C230.331 238.655 230.449 237.81 230.69 237.011C230.93 236.216 231.309 235.506 231.898 235.056C232.538 234.566 233.272 234.308 233.976 234C234.673 233.695 235.357 233.322 235.898 232.675C236.016 232.533 236.132 232.382 236.227 232.214C236.303 232.082 236.378 231.828 236.493 231.745C236.671 231.614 236.932 231.953 237.087 232.077C237.85 232.684 238.486 233.532 238.999 234.458C239.51 235.379 239.928 236.266 240.269 237.294C240.521 238.057 240.679 239.034 241.123 239.659C241.321 239.938 242.794 240.107 243.272 239.863C243.749 239.62 244.284 238.987 244.444 238.59C244.608 238.184 244.647 237.738 244.577 237.294C244.536 237.033 244.451 236.788 244.405 236.532C244.367 236.316 244.331 236.112 244.248 235.915C244.089 235.54 243.818 235.271 243.492 235.159C243.832 234.765 244.113 234.295 244.308 233.769C244.511 233.222 244.683 232.558 244.731 231.958C244.771 231.471 244.71 230.966 244.497 230.547C244.274 230.108 243.879 229.822 243.538 229.548C244.06 229.035 244.506 228.412 244.874 227.722C245.588 226.38 246.03 224.689 245.667 223.089Z" fill="#191847"/>
<path fill-rule="evenodd" clip-rule="evenodd" d="M212.876 340.409L240.651 432.625L260.119 500.593H271.219L244.459 340.409L212.876 340.409Z" fill="#1F28CF"/>
<path fill-rule="evenodd" clip-rule="evenodd" d="M206.012 340.409C205.71 372.05 205.928 414.65 205.225 416.622C204.756 417.937 190.169 432.919 161.465 461.567L167.187 473.775C201.265 446.2 219.175 430.575 220.918 426.902C223.531 421.391 236.661 370.68 243.492 340.409H206.012Z" fill="#2B44FF"/>
<path fill-rule="evenodd" clip-rule="evenodd" d="M151.399 469.908L161.169 460.551L168.93 472.168C169.476 480.979 171.743 490.845 175.731 501.764L173.94 503.651L159.898 482.631L155.989 474.496L155.094 475.44L151.399 469.908Z" fill="#191847"/>
<path fill-rule="evenodd" clip-rule="evenodd" d="M259.089 513.64L259.666 498.419H271.797C277.549 503.492 285.059 507.599 294.326 510.74V513.64H272.375L264.865 512.19V513.64H259.089Z" fill="#191847"/>
<path fill-rule="evenodd" clip-rule="evenodd" d="M262.553 311.633L285.36 307.729C289.923 304.545 294.12 302.389 297.952 301.262C299.03 301.223 300.746 301.715 298.19 304.388C295.635 307.061 293.042 310.018 293.497 311.445C293.952 312.871 296.329 312.341 296.723 314.535C296.985 315.998 293.128 316.235 285.151 315.248L266.645 324.454L262.553 311.633ZM190.906 318.257L203.555 318.316C189.685 357.481 182.453 377.986 181.859 379.834C180.522 383.99 183.351 390.32 184.561 393.722C180.621 395.934 181.041 387.742 176.071 390.644C171.535 393.292 168.084 398.089 162.843 394.032C162.199 393.533 161.493 391.655 163.199 390.187C167.449 386.53 173.574 380.13 174.402 378.024C175.53 375.151 181.032 355.229 190.906 318.257Z" fill="#997659"/>
<path fill-rule="evenodd" clip-rule="evenodd" d="M225.554 267.919L235.458 268.746C237.897 296.435 251.183 313.925 280.929 308.004L284.881 343.661C257.078 348.169 232.696 334.203 227.699 296.388C226.405 286.599 225.384 276.412 225.554 267.919Z" fill="#AFB9C5"/>
<path fill-rule="evenodd" clip-rule="evenodd" d="M220.668 264.306L235.673 268.618C235.673 301.002 243.895 321.664 248.111 345.474H207.585C207.014 353.701 206.664 362.157 206.481 370.842H176.137C183.013 324.935 197.526 289.419 219.677 264.294H220.66L220.668 264.306Z" fill="#C5CFD6"/>
<path fill-rule="evenodd" clip-rule="evenodd" d="M213.979 299.273C212.935 319.453 213.549 334.853 215.822 345.474H207.585C208.716 329.175 210.712 313.775 213.979 299.273L213.979 299.273Z" fill="black" fill-opacity="0.1"/>
<path fill-rule="evenodd" clip-rule="evenodd" d="M86.5209 269.07C83.1545 266.011 80.5846 261.931 80.1757 256.833C78.9975 242.144 97.789 241.425 102.415 247.98C107.042 254.534 109.309 273.179 104.891 275.468C103.129 276.381 99.0288 275.938 94.6611 274.144L99.9865 293.085L85.2199 296.232L86.5209 269.07Z" fill="#B28B67"/>
<path fill-rule="evenodd" clip-rule="evenodd" d="M92.6774 255.694C94.553 264.317 96.6874 268.39 99.0806 267.914C102.671 267.198 105.33 264.03 106.905 263.716C108.053 263.487 108.041 265.154 107.46 266.503C106.981 267.616 104.067 269.178 104.298 270.71C104.529 272.241 106.766 270.575 106.904 271.484C107.13 272.986 107.981 275.727 105.661 276.189C103.313 276.657 96.4351 277.036 94.6902 273.348C93.5641 270.968 92.2922 265.825 90.8743 257.918C90.729 257.928 90.5826 257.947 90.4356 257.976C88.4237 258.377 87.0693 260.535 87.4106 262.797C87.5838 263.945 88.1607 264.899 88.95 265.508C88.3089 267.013 87.5751 268.598 86.7101 270.256C82.2296 268.323 78.0005 260.895 80.8126 252.39C81.3414 248.393 83.5247 245.879 86.3215 244.357C88.5327 242.764 90.9844 242.146 93.1713 242.401C97.3192 241.981 101.181 242.655 102.342 243.281C102.998 247.633 102.443 249.073 96.0198 250.235C94.5867 251.483 93.6195 253.333 92.6774 255.694Z" fill="#191847"/>
<path fill-rule="evenodd" clip-rule="evenodd" d="M85.2224 353.15L110.972 442.403L127.244 517.165L135.577 518.218L113.86 356.768L85.2224 353.15Z" fill="#997659"/>
<path fill-rule="evenodd" clip-rule="evenodd" d="M80.9813 354.151C78.6809 383.817 71.2289 423.201 70.3396 424.955C69.7466 426.125 51.0641 439.574 14.292 465.304L19.4948 472.543C62.2369 451.913 84.6715 439.995 86.7989 436.788C89.99 431.977 102.421 385.547 111.75 358.075L80.9813 354.151Z" fill="#B28B67"/>
<path fill-rule="evenodd" clip-rule="evenodd" d="M13.7784 465.296C11.8799 465.825 10.5571 466.38 9.80982 466.962C8.90096 467.671 7.68033 468.877 6.14791 470.583C6.88329 471.789 13.4923 482.629 25.9749 503.103C28.9323 502.044 29.9533 500.529 29.0379 498.556C28.1226 496.584 27.3762 494.934 26.7989 493.608L23.4736 473.902C23.4096 473.523 23.0876 473.271 22.7543 473.34C22.7486 473.341 22.7429 473.342 22.7372 473.343L20.0847 473.978C18.3697 472.828 17.1909 471.726 16.5484 470.672C16.0264 469.816 15.6077 468.398 15.2925 466.418L15.2925 466.418C15.1715 465.659 14.532 465.147 13.8641 465.276C13.8353 465.282 13.8067 465.289 13.7784 465.296Z" fill="#E4E4E4"/>
<path fill-rule="evenodd" clip-rule="evenodd" d="M121.808 513.517C120.988 515.372 120.545 516.782 120.482 517.746C120.404 518.92 120.477 520.656 120.7 522.955C121.995 523.12 133.631 524.611 155.609 527.427C156.724 524.39 156.313 522.621 154.375 522.119C152.437 521.618 150.829 521.183 149.549 520.814L133.826 511.131C133.524 510.945 133.148 511.045 132.987 511.356C132.985 511.361 132.982 511.366 132.979 511.372L131.761 513.898C129.893 514.554 128.393 514.809 127.262 514.664C126.343 514.546 125.099 513.993 123.531 513.006L123.531 513.006C122.93 512.626 122.176 512.819 121.848 513.436C121.834 513.463 121.821 513.49 121.808 513.517Z" fill="#E4E4E4"/>
<path fill-rule="evenodd" clip-rule="evenodd" d="M96.5279 505.7L136.3 506.1L116.752 357.227L81.4046 352.75L96.5279 505.7Z" fill="#69A1AC"/>
<path fill-rule="evenodd" clip-rule="evenodd" d="M22.5671 455.908L46.0179 491.924C75.1256 463.532 92.2425 444.767 97.3685 435.629C102.495 426.491 108.27 400.705 114.696 358.27L75.3 353.252C70.8396 390.737 68.2111 410.313 67.4144 411.983C66.6178 413.652 51.6687 428.294 22.5671 455.908Z" fill="#89C5CC"/>
<path fill-rule="evenodd" clip-rule="evenodd" d="M135.758 341.686L156.58 356.494C162.006 357.674 166.591 359.333 170.337 361.472C171.245 362.279 172.399 363.976 168.894 363.975C165.388 363.974 161.703 364.154 161.33 365.565C160.957 366.977 163.192 368.428 162.365 370.361C161.814 371.65 158.514 368.832 152.465 361.908L132.404 354.371L135.758 341.686ZM60.8225 348.88L73.6207 347.807C68.0218 377.907 64.9779 393.884 64.489 395.738C63.3891 399.911 66.8692 405.811 68.4104 409.01C64.4036 411.533 64.2243 403.517 59.1783 406.807C54.5726 409.81 51.2811 414.806 45.4175 411.345C44.6966 410.92 43.8051 409.157 45.5013 407.568C49.7272 403.609 55.7308 396.803 56.4474 394.674C57.4245 391.77 58.8829 376.506 60.8225 348.88Z" fill="#B28B67"/>
<path fill-rule="evenodd" clip-rule="evenodd" d="M92.9335 285.548L98.1274 284.07C119.221 301.414 130.182 337.305 155.722 354.601L150.591 363.166C108.507 360.983 94.6265 317.248 92.9335 285.548Z" fill="#E87613"/>
<path fill-rule="evenodd" clip-rule="evenodd" d="M75.8428 363.07C96.9018 361.195 112.392 359.816 122.314 358.932C124.438 358.743 123.762 355.257 123.315 353.508C118.164 333.316 102.6 312.442 100.31 283.251L86.7162 282.031C77.2353 303.496 75.3788 329.049 75.8428 363.07Z" fill="#DDE3E9"/>
<path fill-rule="evenodd" clip-rule="evenodd" d="M71.2774 303.747C69.2842 303.279 67.6284 301.918 66.3101 299.666C60.6271 289.96 61.9562 284.218 67.0382 281.916C72.1202 279.614 77.076 282.979 85.4017 282.237C85.8545 282.196 86.2719 282.192 86.6536 282.224L90.8632 282.125C106.541 327.869 112.298 358.809 108.134 374.944L71.6294 378.2C69.92 384.191 68.2318 389.253 66.5649 393.388L56.6181 394.275C52.9605 359.562 57.8469 329.386 71.2774 303.747Z" fill="#FF9B21"/>
<path fill-rule="evenodd" clip-rule="evenodd" d="M77.4343 353.34C79.4498 364.287 81.9466 372.139 84.9248 376.898L71.3603 378.106C73.3561 371.115 75.3808 362.859 77.4343 353.34Z" fill="black" fill-opacity="0.1"/>
<path fill-rule="evenodd" clip-rule="evenodd" d="M596.878 275.395C593.193 283.42 586.758 302.384 588.959 306.24L606.416 311.117C606.424 311.082 606.433 311.047 606.441 311.012C613.065 311.999 619.27 307.119 620.694 299.486L623.325 285.391C624.853 277.2 620.298 268.941 613.15 266.944L611.946 266.608C605.535 264.817 599.216 268.672 596.878 275.395Z" fill="#191847"/>
<path fill-rule="evenodd" clip-rule="evenodd" d="M614.462 295.176C617.945 292.322 620.67 288.373 621.272 283.231C623.004 268.414 604.233 266.293 599.358 272.601C594.482 278.908 591.511 297.656 595.844 300.307C597.572 301.363 601.691 301.218 606.128 299.721L600.086 318.543L614.739 322.831L614.462 295.176Z" fill="#B28B67"/>
<path fill-rule="evenodd" clip-rule="evenodd" d="M610.894 291.303C608.715 299.23 607.251 308.569 608.823 311.322L626.267 316.194C630.819 297.291 620.039 302.093 623.41 284.04C622.946 283.226 622.512 282.429 622.068 281.721L622.187 281.196C620.477 273.331 617.3 268.75 612.657 267.453C605.691 265.507 602.805 268.573 600.35 271.175C600.732 277.02 606.013 279.346 610.205 284.093C610.872 283.727 611.657 283.615 612.447 283.836C614.274 284.346 615.441 286.442 615.054 288.517C614.666 290.591 612.871 291.859 611.044 291.349C610.994 291.335 610.944 291.32 610.894 291.303Z" fill="#191847"/>
<path fill-rule="evenodd" clip-rule="evenodd" d="M634.309 449.097C619.753 454.496 607.148 457.503 596.493 458.118C585.838 458.733 575.842 455.8 566.505 449.317C580.743 443.816 592.512 440.797 601.811 440.26C611.11 439.723 621.943 442.669 634.309 449.097Z" fill="#D07474"/>
<path fill-rule="evenodd" clip-rule="evenodd" d="M584.052 465.996C584.189 465.742 584.304 465.467 584.392 465.171C586.226 459.055 616.474 392.449 619.338 380.429L583.263 382.56C581.086 391.699 571.727 448.795 570.502 460.149C566.144 478.201 557.753 536.328 556.588 540.389C555.364 544.662 563.031 548.584 564.899 543.31C567.871 534.919 574.866 511.772 577.876 497.714C580.699 484.534 582.966 472.692 584.052 465.996Z" fill="#997659"/>
<path fill-rule="evenodd" clip-rule="evenodd" d="M612.713 472.462C627.308 475.77 680.481 480.162 684.149 481.128C687.921 482.122 690.957 473.153 686.283 471.526C678.846 468.938 658.39 463.151 646.026 461.028C636.081 459.32 627.012 457.983 620.928 457.246C620.906 437.854 621.968 391.251 620.154 381.306L588.602 383.177C590.342 392.713 604.737 462.192 607.247 469.083C608.051 471.549 610.274 472.528 612.713 472.462Z" fill="#B28B67"/>
<path fill-rule="evenodd" clip-rule="evenodd" d="M685.819 470.381C687.723 469.889 689.126 469.718 690.026 469.866C691.122 470.047 692.697 470.524 694.751 471.295C694.584 472.775 693.082 486.076 690.246 511.197C687.185 511.748 685.663 510.887 685.68 508.614C685.698 506.342 685.695 504.451 685.673 502.942L680.666 483.224C680.57 482.845 680.754 482.45 681.079 482.341C681.084 482.339 681.09 482.337 681.096 482.336L683.714 481.553C684.776 479.622 685.38 478.01 685.526 476.717C685.645 475.666 685.444 474.155 684.925 472.184L684.924 472.184C684.725 471.428 685.088 470.632 685.735 470.407C685.762 470.397 685.791 470.389 685.819 470.381Z" fill="#E4E4E4"/>
<path fill-rule="evenodd" clip-rule="evenodd" d="M568.456 542.556C569.197 544.558 569.58 546.068 569.607 547.083C569.639 548.318 569.503 550.132 569.197 552.524C567.913 552.604 556.38 553.32 534.598 554.673C533.611 551.41 534.083 549.587 536.013 549.202C537.943 548.817 539.546 548.478 540.822 548.185L556.692 539.182C556.997 539.009 557.364 539.142 557.511 539.479C557.514 539.484 557.516 539.49 557.519 539.496L558.626 542.231C560.444 543.054 561.913 543.431 563.035 543.361C563.946 543.304 565.193 542.815 566.776 541.894L566.776 541.894C567.384 541.541 568.12 541.797 568.42 542.468C568.433 542.496 568.445 542.526 568.456 542.556Z" fill="#E4E4E4"/>
<path fill-rule="evenodd" clip-rule="evenodd" d="M620.247 380.509C606.222 376.806 593.071 377.586 580.792 382.849C577.095 405.52 566.855 415.038 565.961 449.513C587.249 460.127 612.58 438.279 634.477 448.563C640.195 432.024 630.489 393.586 620.247 380.509Z" fill="#EEE380"/>
<path fill-rule="evenodd" clip-rule="evenodd" d="M585.508 334.972L565.948 318.166C562.986 312.794 559.956 308.499 556.856 305.281C555.874 304.608 554.091 304.001 555.398 307.754C556.705 311.506 557.933 315.519 556.947 316.442C555.961 317.364 553.972 315.509 552.739 317.11C551.917 318.178 555.392 320.667 563.165 324.577L576.645 343.264L585.508 334.972ZM551.259 340.618L542.669 333.218C542.013 327.32 540.785 324.201 538.983 323.862C537.68 322.886 539.284 330.47 536.726 329.405C534.167 328.341 528.371 321.774 527.14 322.702C525.318 324.076 526.204 329.383 527.637 332.19C530.317 337.436 532.794 339.493 539.128 342.705C542.44 344.385 545.906 347.219 549.525 351.206L551.259 340.618Z" fill="#997659"/>
<path fill-rule="evenodd" clip-rule="evenodd" d="M596.047 333.557C588.686 332.224 579.06 328.773 569.441 319.337L564.124 329.22C570.422 338.708 579.824 347.217 588.751 348.43C595.785 349.385 600.473 340.226 596.047 333.557Z" fill="#D07474"/>
<path fill-rule="evenodd" clip-rule="evenodd" d="M584.164 348.972C576.076 349.902 563.238 345.032 545.65 334.361C539.845 344.493 536.853 351.91 536.675 356.612C551.42 368.801 564.499 375.332 575.639 377.496C574.422 385.074 574.408 392.477 576.369 399.574C580.4 414.164 614.453 407.024 625.142 411.362C634.912 386.815 622.809 374.128 624.655 357.678C626.676 339.664 617.252 309.822 615.406 309.511L598.563 306.671C596.082 320.27 589.693 334.642 584.164 348.972Z" fill="#D07474"/>
<path d="M677.668 465.898L713.552 464.202L713.002 464.646L723.001 479.292C711.493 491.304 683.318 526.104 682.921 526.062C682.423 526.008 659.972 491.426 661.729 489.1C663.135 487.239 670.875 469.865 672.04 466.805L677.668 465.898Z" fill="white"/>
<path fill-rule="evenodd" clip-rule="evenodd" d="M234.917 371.168C232.255 367.247 230.454 362.443 230.755 357.059C231.622 341.548 248.83 344.96 252.178 352.789C255.525 360.618 255.128 380.476 250.801 381.876C249.076 382.434 245.401 381.067 241.66 378.238L244.008 399.08H230.144L234.917 371.168Z" fill="#B28B67"/>
<path fill-rule="evenodd" clip-rule="evenodd" d="M244.276 343.766C242.449 343.39 237.529 343.132 236.622 343.132C236.042 343.132 235.413 343.298 235.07 342.63C234.789 342.083 234.892 341.158 234.808 340.523C234.71 339.786 234.572 339.058 234.432 338.332C234.034 336.266 233.431 334.3 232.588 332.454C231.006 328.992 228.689 326.28 225.764 324.702C222.533 322.959 218.878 322.56 215.403 322.914C211.684 323.292 208.318 324.832 204.807 326.282C201.461 327.663 197.957 328.207 194.458 327.532C190.932 326.853 188.268 324.455 185.294 322.179C182.25 319.849 178.771 318.326 175.172 318.676C171.812 319.003 168.716 320.743 165.938 323.069C163.339 325.244 161.194 327.861 159.984 331.545C158.681 335.507 158.682 339.857 160.824 343.359C163.929 348.435 169.693 349.748 174.488 349.617C177.261 349.542 179.985 348.906 182.604 347.751C186.096 346.21 189.114 343.597 192.381 341.478C193.914 340.483 195.499 339.666 197.16 339.078C198.772 338.507 200.36 338.245 201.82 339.467C203.364 340.759 204.747 342.029 206.514 342.838C208.208 343.614 210.003 344.049 211.808 344.031C215.321 343.997 218.783 342.624 222.195 341.704C224.977 340.954 227.953 340.207 230.79 340.928C231.973 341.228 233.702 341.85 234.129 343.393C226.935 345.029 224.109 356.193 226.137 364.388C227.232 368.812 233.812 373.983 236.371 371.657C237.991 370.184 237.007 368.25 236.371 366.973C235.151 364.528 234.734 361.387 236.99 359.685C238.937 358.217 240.984 361.703 241.022 361.7C241.557 361.647 246.18 358.366 249.365 353.579C252.507 353.813 252.984 351.213 252.234 349.087C251.483 346.962 246.801 344.286 244.276 343.766Z" fill="#191847"/>
<path fill-rule="evenodd" clip-rule="evenodd" d="M226.684 459.256L269.608 549.297L301.788 625.42H308.719L254.801 459.256L226.684 459.256Z" fill="#997659"/>
<path fill-rule="evenodd" clip-rule="evenodd" d="M297.55 621.906C296.904 624.07 296.581 625.69 296.581 626.764C296.581 628.071 296.754 629.979 297.101 632.486C298.31 632.486 309.17 632.486 329.682 632.486C330.529 628.974 330.04 627.078 328.216 626.798C326.392 626.518 324.876 626.265 323.67 626.04L308.526 617.569C308.235 617.406 307.894 617.57 307.764 617.936C307.761 617.942 307.759 617.948 307.757 617.955L306.784 620.917C305.095 621.906 303.723 622.4 302.667 622.4C301.809 622.4 300.625 621.966 299.113 621.096L299.113 621.096C298.533 620.763 297.848 621.082 297.582 621.81C297.57 621.841 297.56 621.873 297.55 621.906Z" fill="#E4E4E4"/>
<path fill-rule="evenodd" clip-rule="evenodd" d="M292.851 613.23L306.218 608.157C300.361 586.189 293.183 562.014 284.684 535.633C276.185 509.251 267.057 483.792 257.3 459.256H219.547C230.394 490.293 241.894 518.495 254.046 543.86C266.197 569.226 279.132 592.349 292.851 613.23Z" fill="#DB2721"/>
<path fill-rule="evenodd" clip-rule="evenodd" d="M223.863 459.256C219.812 490.897 211.999 531.322 211.261 532.57C210.77 533.402 193.072 540.843 158.169 554.893L159.666 562.562C201.288 555.027 223.22 549.181 225.46 545.024C228.821 538.788 245.602 489.527 252.101 459.256H223.863Z" fill="#B28B67"/>
<path fill-rule="evenodd" clip-rule="evenodd" d="M170.438 548.264L173.075 560.615C204.206 564.041 223.281 561.566 230.299 553.189C237.318 544.812 245.316 513.501 254.296 459.256H218.296C212.607 503.675 209.426 526.817 208.754 528.682C208.082 530.547 195.31 537.074 170.438 548.264Z" fill="#FF4133"/>
<path fill-rule="evenodd" clip-rule="evenodd" d="M160.065 551.772C158.219 551.395 156.865 551.31 156.001 551.517C154.952 551.768 153.448 552.348 151.491 553.256C151.691 554.739 153.487 568.068 156.88 593.244C159.842 593.608 161.284 592.643 161.207 590.35C161.13 588.058 161.083 586.149 161.064 584.625L165.364 564.41C165.447 564.021 165.258 563.633 164.943 563.544C164.938 563.543 164.932 563.541 164.927 563.54L162.386 562.915C161.313 561.033 160.689 559.443 160.514 558.148C160.372 557.095 160.525 555.557 160.974 553.535L160.974 553.535C161.146 552.759 160.776 551.979 160.147 551.792C160.12 551.784 160.093 551.778 160.065 551.772Z" fill="#E4E4E4"/>
<path fill-rule="evenodd" clip-rule="evenodd" d="M276.387 447.739L292.75 467.769C297.512 470.317 301.413 473.131 304.454 476.21C305.138 477.245 305.882 479.229 302.665 478.341C299.447 477.454 296.031 476.702 295.426 478.015C294.821 479.328 296.603 481.34 295.485 483.058C294.74 484.204 292.234 480.56 287.968 472.127L270.952 459.538L276.387 447.739ZM203.754 450.563L215.826 450.623C208.372 480.814 204.349 496.833 203.754 498.681C202.418 502.837 205.246 509.167 206.456 512.569C202.516 514.781 202.936 506.589 197.966 509.49C193.43 512.138 189.98 516.936 184.739 512.879C184.094 512.38 183.388 510.502 185.094 509.034C189.344 505.377 195.469 498.977 196.297 496.871C197.425 493.998 199.911 478.562 203.754 450.563Z" fill="#B28B67"/>
<path fill-rule="evenodd" clip-rule="evenodd" d="M238.06 387.006L243.055 385.931C251.655 412.887 266.669 437.38 288.098 459.41L271.905 484.094C250.479 452.727 237.271 420.364 238.06 387.006Z" fill="#191847"/>
<path fill-rule="evenodd" clip-rule="evenodd" d="M216.285 465.77H260.764C250.459 434.331 245.307 407.625 245.307 385.65L231.89 383.141C221.345 404.421 218.367 430.62 216.285 465.77Z" fill="#DDE3E9"/>
<path fill-rule="evenodd" clip-rule="evenodd" d="M231.606 383.153C231.608 383.149 231.609 383.145 231.611 383.141H232.487C233.535 383.187 235.131 383.268 237.276 383.386L240.518 395.012C240.861 409.186 242.863 437.75 246.526 480.705H217.369C217.445 483.672 217.571 486.667 217.747 489.689H196.067C199.31 443.782 211.153 408.266 231.595 383.141L231.606 383.153V383.153Z" fill="#2F3676"/>
<path fill-rule="evenodd" clip-rule="evenodd" d="M219.295 442.745C220.124 461.238 222.202 473.987 225.527 480.991H217.376C217.019 467.686 217.659 454.937 219.295 442.745V442.745Z" fill="black" fill-opacity="0.1"/>
<path fill-rule="evenodd" clip-rule="evenodd" d="M223.859 458.522L238.236 450.135V458.522H223.859Z" fill="white" fill-opacity="0.2"/>
<path fill-rule="evenodd" clip-rule="evenodd" d="M315.592 295.609C312.194 292.916 309.483 289.077 308.756 283.92C306.662 269.062 324.45 265.917 329.276 272.021C334.103 278.125 337.494 296.885 333.453 299.791C331.841 300.95 327.92 301.023 323.656 299.75L329.969 318.42L316.162 323.53L315.592 295.609Z" fill="#784931"/>
<path fill-rule="evenodd" clip-rule="evenodd" d="M321.886 265.54C319.886 265.525 317.139 266.261 316.036 266.824C316.298 264.734 316.126 262.571 315.501 260.629C314.893 258.743 313.82 257.335 312.785 255.829C312.308 255.134 311.79 254.459 311.138 254.031C310.473 253.594 309.711 253.422 308.96 253.479C308.191 253.536 307.435 253.825 306.745 254.27C306.44 254.466 306.188 254.746 305.892 254.958C305.59 255.174 305.383 254.987 305.098 254.827C304.411 254.441 303.522 254.447 302.785 254.6C301.958 254.77 301.155 255.214 300.455 255.805C299.774 256.381 299.161 257.138 298.773 258.061C298.6 258.471 298.459 258.919 298.402 259.378C298.378 259.566 298.389 259.669 298.263 259.78C298.146 259.883 297.996 259.939 297.874 260.041C296.697 261.023 295.845 262.609 295.563 264.354C295.398 265.372 295.558 267.004 295.967 268.75C296.376 270.496 298.65 274.62 300.236 275.854C301.651 276.955 303.481 277.361 305.14 277.231C304.394 279.034 304.069 281.069 303.932 283.07C303.782 285.243 303.861 287.417 304.165 289.553C304.455 291.581 304.877 293.685 305.666 295.489C306.403 297.176 307.487 298.389 308.976 298.872C309.658 299.093 310.364 299.19 311.067 299.257C311.759 299.324 312.452 299.382 313.149 299.309C314.466 299.171 315.9 298.601 316.618 297.057C316.877 296.5 317.147 295.82 317.292 295.202C317.344 294.979 317.374 294.835 317.224 294.689C317.046 294.515 316.796 294.422 316.589 294.309C315.411 293.666 314.535 292.559 314.059 291.042C313.575 289.502 313.507 287.315 314.655 286.156C316.071 284.726 318.03 285.084 319.637 285.496C319.712 282.728 320.474 279.987 322.17 278.122C324.047 276.059 326.477 275.027 328.451 273.126C328.965 272.631 329.482 272.093 329.783 271.351C329.909 271.041 330.05 270.647 330.053 270.296C330.058 269.834 329.753 269.558 329.507 269.287C328.199 267.854 323.886 265.555 321.886 265.54Z" fill="#191847"/>
<path fill-rule="evenodd" clip-rule="evenodd" d="M319.943 382.04L340.886 473.899L356.166 541.605H367.31L351.073 382.04H319.943Z" fill="#191847"/>
<path fill-rule="evenodd" clip-rule="evenodd" d="M314.342 382.04C313.858 429.385 312.206 455.209 311.697 459.51C311.189 463.812 303.498 491.177 288.626 541.605H300.171C319.105 493.228 329.674 465.863 331.879 459.51C334.083 453.158 340.888 427.334 351.136 382.04H314.342Z" fill="#2F3676"/>
<path fill-rule="evenodd" clip-rule="evenodd" d="M287.594 554.713L288.172 539.492H300.303C306.055 544.566 313.564 548.673 322.831 551.814V554.713H300.88L293.371 553.263V554.713H287.594Z" fill="#191847"/>
<path fill-rule="evenodd" clip-rule="evenodd" d="M354.602 554.713L355.18 539.492H367.31C373.062 544.566 380.572 548.673 389.839 551.814V554.713H367.888L360.379 553.263V554.713H354.602Z" fill="#191847"/>
<path fill-rule="evenodd" clip-rule="evenodd" d="M367.402 363.116L387.035 376.552C392.146 377.414 396.467 378.794 399.998 380.694C400.854 381.439 401.944 383.047 398.643 383.24C395.342 383.433 391.873 383.815 391.524 385.227C391.175 386.638 393.282 387.944 392.507 389.895C391.99 391.195 388.878 388.602 383.17 382.115L364.266 375.8L367.402 363.116ZM288.28 374.031L298.638 373.396C291.626 404.21 287.839 420.525 287.277 422.341C286.012 426.426 288.958 432.322 290.23 435.512C286.323 437.902 286.598 429.999 281.671 433.121C277.173 435.971 273.802 440.815 268.479 437.265C267.825 436.829 267.084 435.07 268.767 433.545C272.96 429.745 278.982 423.181 279.773 421.1C280.853 418.263 283.688 402.573 288.28 374.031Z" fill="#B28B67"/>
<path fill-rule="evenodd" clip-rule="evenodd" d="M323.039 312.829L329.028 308.779C341.124 332.691 357.326 354.749 381.592 370.847L377.793 383.165C357.175 374.258 337.964 368.104 328.022 349.712C324.685 343.539 323.932 320.952 323.039 312.829Z" fill="#C5CFD6"/>
<path fill-rule="evenodd" clip-rule="evenodd" d="M311.488 390.751C329.933 388.723 344.204 385.286 354.3 380.442C355.55 379.841 355.4 377.166 354.562 375.528C341.51 350.015 331.862 327.334 329.266 308.056C327.698 309.515 324.728 310.393 320.356 310.688C311.547 333.32 309.337 357.387 311.488 390.751Z" fill="#323337"/>
<path fill-rule="evenodd" clip-rule="evenodd" d="M317.856 309.527L322.653 308.373C324.845 316.09 342.924 423.383 358.56 456.141L299.72 470.3C296.634 437.587 301.456 396.237 307.265 361.208C299.601 373.406 294.032 392.288 290.558 417.855L279.074 417.068C281.49 372.165 294.091 336.556 316.877 310.241C316.911 310.073 316.945 309.905 316.979 309.738L317.404 309.636C317.543 309.477 317.684 309.317 317.824 309.159L317.856 309.527Z" fill="#DDE3E9"/>
<path fill-rule="evenodd" clip-rule="evenodd" d="M528.872 401C531.661 397.381 533.548 392.945 533.233 387.975C532.324 373.655 514.293 376.805 510.786 384.033C507.278 391.26 507.695 409.594 512.228 410.886C514.036 411.401 517.887 410.139 521.806 407.527L519.346 426.769H533.872L528.872 401Z" fill="#D6AB84"/>
<path fill-rule="evenodd" clip-rule="evenodd" d="M516.524 376.161C518.508 375.492 521.39 375.265 522.602 375.418C521.912 373.592 521.639 371.557 521.862 369.576C522.079 367.65 522.857 366.011 523.576 364.293C523.908 363.502 524.284 362.714 524.845 362.109C525.415 361.492 526.138 361.084 526.896 360.89C527.672 360.691 528.483 360.708 529.259 360.888C529.603 360.968 529.911 361.142 530.248 361.238C530.593 361.337 530.761 361.098 531.011 360.858C531.615 360.28 532.5 359.995 533.264 359.893C534.12 359.778 535.009 359.921 535.827 360.232C536.622 360.535 537.386 361.028 537.961 361.745C538.217 362.064 538.45 362.427 538.601 362.829C538.663 362.993 538.673 363.091 538.821 363.151C538.959 363.207 539.12 363.209 539.261 363.262C540.633 363.775 541.805 364.947 542.444 366.451C542.816 367.328 542.993 368.873 542.944 370.605C542.896 372.337 541.482 376.855 540.159 378.503C538.978 379.975 537.243 380.945 535.568 381.37C536.679 382.775 537.42 384.531 537.967 386.316C538.561 388.256 538.929 390.271 539.065 392.324C539.194 394.275 539.206 396.338 538.792 398.247C538.405 400.033 537.578 401.498 536.196 402.427C535.563 402.852 534.882 403.172 534.198 403.464C533.523 403.752 532.846 404.032 532.139 404.194C530.801 404.5 529.259 404.447 528.228 403.27C527.857 402.845 527.448 402.312 527.177 401.793C527.08 401.607 527.021 401.485 527.14 401.303C527.281 401.084 527.511 400.917 527.693 400.746C528.732 399.773 529.375 398.473 529.537 396.928C529.702 395.361 529.321 393.338 527.942 392.653C526.241 391.809 524.367 392.778 522.855 393.682C522.212 391.174 520.893 388.916 518.824 387.765C516.535 386.493 513.908 386.344 511.556 385.252C510.943 384.967 510.318 384.644 509.867 384.065C509.679 383.822 509.457 383.508 509.382 383.188C509.283 382.767 509.529 382.414 509.718 382.085C510.724 380.345 514.539 376.83 516.524 376.161Z" fill="#212038"/>
<path fill-rule="evenodd" clip-rule="evenodd" d="M461.916 494.418C457.571 487.902 446.708 492.216 446.714 497.61C446.732 511.773 458.422 579.011 459.033 583.256C459.643 587.501 466.182 588.889 466.563 583.585C467.168 575.145 468.294 545.888 467.168 532.276C466.839 528.301 466.492 524.458 466.143 520.857C472.287 533.06 481.63 550.308 494.171 572.601L501.142 569.08C495.668 549.142 491.18 535.066 487.677 526.853C481.679 512.789 476.054 500.746 473.687 496.504C470.561 490.9 465.489 491.644 461.916 494.418Z" fill="#D6AB84"/>
<path fill-rule="evenodd" clip-rule="evenodd" d="M500.644 558.008L476.719 495.349C470.988 485.156 454.918 497.424 456.873 503.335C461.31 516.757 483.878 560.209 485.2 564.208L500.644 558.008Z" fill="#D8860B"/>
<path fill-rule="evenodd" clip-rule="evenodd" d="M446.109 502.502C446.109 520.262 453.151 562.01 453.156 565.921L470.213 565.285C467.231 528.988 465.974 510.716 466.441 510.47C467.491 509.917 509.503 516.899 522.103 517.426C540.273 518.186 547.789 505.863 548.399 482.477H513.204C483.11 486.448 463.33 489.211 453.866 490.764C447.788 491.761 446.109 497.61 446.109 502.502Z" fill="#D8860B"/>
<path fill-rule="evenodd" clip-rule="evenodd" d="M502.216 566.969C503.286 568.636 503.923 569.932 504.126 570.855C504.373 571.977 504.557 573.667 504.676 575.923C503.44 576.282 492.336 579.505 471.364 585.592C469.834 582.827 469.975 581.054 471.787 580.272C473.6 579.49 475.101 578.823 476.292 578.271L490.173 566.502C490.44 566.276 490.821 566.316 491.023 566.591C491.026 566.596 491.029 566.601 491.033 566.605L492.588 568.861C494.502 569.209 495.998 569.226 497.078 568.913C497.955 568.658 499.084 567.933 500.465 566.738L500.465 566.738C500.995 566.28 501.756 566.35 502.166 566.897C502.183 566.92 502.2 566.944 502.216 566.969Z" fill="#E4E4E4"/>
<path fill-rule="evenodd" clip-rule="evenodd" d="M467.488 573.584C468.165 575.582 468.504 577.077 468.504 578.07C468.504 579.276 468.322 581.037 467.958 583.352C466.692 583.352 455.313 583.352 433.821 583.352C432.933 580.11 433.445 578.359 435.357 578.101C437.268 577.842 438.856 577.609 440.12 577.4L455.987 569.58C456.292 569.43 456.65 569.581 456.786 569.919C456.789 569.924 456.791 569.93 456.793 569.936L457.813 572.671C459.582 573.584 461.02 574.04 462.126 574.04C463.025 574.04 464.266 573.639 465.85 572.837L465.85 572.837C466.458 572.529 467.176 572.824 467.455 573.495C467.467 573.524 467.478 573.554 467.488 573.584Z" fill="#E4E4E4"/>
<path d="M437.938 583.352H465.78C466.95 583.352 467.899 584.401 467.899 585.694C467.899 586.988 466.95 588.036 465.78 588.036H437.938C436.768 588.036 435.82 586.988 435.82 585.694C435.82 584.401 436.768 583.352 437.938 583.352Z" fill="#2F3676"/>
<path fill-rule="evenodd" clip-rule="evenodd" d="M550.215 486.324H485.451C482.109 486.324 479.399 489.32 479.399 493.016V525.804H553.846C555.183 525.804 556.267 524.606 556.267 523.128V493.016C556.267 489.32 553.557 486.324 550.215 486.324Z" fill="#2F3676"/>
<path fill-rule="evenodd" clip-rule="evenodd" d="M485.451 486.324H484.124C481.159 486.324 478.631 488.698 478.151 491.932L464.872 581.345H471.34" fill="#2F3676"/>
<path d="M467.899 594.728C461.882 594.728 457.004 589.335 457.004 582.683C457.004 576.031 461.882 570.638 467.899 570.638C473.916 570.638 478.793 576.031 478.793 582.683C478.793 589.335 473.916 594.728 467.899 594.728Z" fill="#212038"/>
<path fill-rule="evenodd" clip-rule="evenodd" d="M548.399 593.389C573.804 593.389 594.399 570.62 594.399 542.533C594.399 514.446 573.804 491.677 548.399 491.677C522.994 491.677 502.399 514.446 502.399 542.533C502.399 570.62 522.994 593.389 548.399 593.389ZM548.399 584.021C527.673 584.021 510.872 565.446 510.872 542.533C510.872 519.62 527.673 501.046 548.399 501.046C569.124 501.046 585.925 519.62 585.925 542.533C585.925 565.446 569.124 584.021 548.399 584.021Z" fill="#212038"/>
<path d="M545.978 498.369H550.82V586.698H545.978V498.369Z" fill="#212038"/>
<path d="M519.296 512.251L521.008 510.358C521.48 509.836 522.247 509.836 522.72 510.358L577.502 570.923C577.974 571.446 577.974 572.294 577.502 572.816L575.79 574.709C575.317 575.231 574.551 575.231 574.078 574.709L519.296 514.144C518.823 513.621 518.823 512.774 519.296 512.251Z" fill="#212038"/>
<path d="M508.451 543.872V541.195C508.451 540.456 508.993 539.857 509.662 539.857H587.136C587.804 539.857 588.346 540.456 588.346 541.195V543.872C588.346 544.611 587.804 545.21 587.136 545.21H509.662C508.993 545.21 508.451 544.611 508.451 543.872Z" fill="#212038"/>
<path d="M521.008 574.709L519.296 572.816C518.823 572.294 518.823 571.446 519.296 570.924L574.078 510.358C574.551 509.836 575.317 509.836 575.79 510.358L577.502 512.251C577.974 512.774 577.974 513.621 577.502 514.144L522.72 574.709C522.247 575.232 521.48 575.232 521.008 574.709Z" fill="#212038"/>
<path fill-rule="evenodd" clip-rule="evenodd" d="M486.991 413.614L464.049 406C459.77 402.317 455.733 399.623 451.939 397.921C450.836 397.691 449.009 397.824 451.292 400.687C453.574 403.55 455.859 406.675 455.207 407.875C454.555 409.076 452.181 408.171 451.493 410.072C451.035 411.34 454.97 412.248 463.296 412.796L481.134 424.402L486.991 413.614ZM489.018 458.332L469.712 474.006C464.475 475.568 460.1 477.512 456.587 479.837C455.757 480.673 454.754 482.366 458.196 482.073C461.638 481.781 465.27 481.644 465.745 482.942C466.22 484.24 464.137 485.792 465.097 487.543C465.737 488.71 468.76 485.783 474.168 478.761L493.286 469.996L489.018 458.332Z" fill="#D6AB84"/>
<path fill-rule="evenodd" clip-rule="evenodd" d="M519.007 416.121C508.493 437.794 493.289 454.409 471.249 471.68L479.594 482.083C504.204 471.973 517.192 465.872 523.57 445.395C525.171 440.256 526.29 423.872 527.25 415.252L519.007 416.121Z" fill="#D8860B"/>
<path fill-rule="evenodd" clip-rule="evenodd" d="M548.399 488.332H501.793C512.35 452.736 517.743 428.305 517.972 415.04C517.984 414.363 519.113 413.172 519.613 413.328C523.268 414.469 527.18 414.042 531.347 412.048C542.396 431.693 546.217 455.881 548.399 488.332Z" fill="#F2F2F2"/>
<path fill-rule="evenodd" clip-rule="evenodd" d="M527.37 412.079C514.011 412.2 492.337 414.897 467.34 406.025L464.872 419.658C483.765 433.091 502.894 443.497 519.657 442.02C512.378 476.539 512.714 504.797 528.784 504.797C536.458 504.797 544.741 504.797 553.634 504.797C557.58 475.473 547.207 434.815 537.591 414.307C537.224 413.524 536.442 412.048 534.601 412.048C532.996 412.048 530.589 412.048 527.38 412.048C527.377 412.058 527.374 412.069 527.37 412.079Z" fill="#D8860B"/>
</svg>
